<svg id="visual" viewBox="0 0 900 600" width="900" height="600" xmlns="http://www.w3.org/2000/svg" xmlns:xlink="http://www.w3.org/1999/xlink" version="1.1"><rect width="900" height="600" fill="#000000"></rect><g><g transform="translate(683 408)"><path d="M91.6 -31C103.9 8 88.8 54.8 54.4 81.3C20 107.8 -33.7 114.1 -67 90.4C-100.2 66.7 -113 12.9 -98.4 -29.3C-83.8 -71.5 -41.9 -102.1 -1.1 -101.7C39.7 -101.4 79.3 -70 91.6 -31Z" stroke="#1b142e" fill="none" stroke-width="49"></path></g><g transform="translate(681 32)"><path d="M67.6 -22C77.2 7.3 67.1 43 43.4 60.4C19.6 77.8 -17.8 77 -43.4 58.6C-69 40.3 -82.7 4.5 -73.5 -24.4C-64.3 -53.3 -32.1 -75.2 -1.5 -74.7C29.1 -74.2 58.1 -51.3 67.6 -22Z" stroke="#1b142e" fill="none" stroke-width="49"></path></g><g transform="translate(384 568)"><path d="M52.1 -19.4C58.4 2.6 48.3 27.5 29.9 40.9C11.5 54.2 -15.2 55.9 -32.4 43.6C-49.5 31.4 -57.2 5.2 -50.2 -17.7C-43.2 -40.5 -21.6 -60 0.6 -60.2C22.9 -60.4 45.7 -41.4 52.1 -19.4Z" stroke="#1b142e" fill="none" stroke-width="49"></path></g></g></svg>