<svg id="visual" viewBox="0 0 900 600" width="900" height="600" xmlns="http://www.w3.org/2000/svg" xmlns:xlink="http://www.w3.org/1999/xlink" version="1.1"><rect width="900" height="600" fill="#000000"></rect><g><g transform="translate(873 545)"><path d="M109.8 -36.3C123.9 8 104.5 62.6 65.3 91.5C26 120.4 -33 123.6 -71 96.3C-109 69.1 -126 11.3 -110.6 -34.6C-95.2 -80.4 -47.6 -114.4 0.1 -114.4C47.8 -114.5 95.6 -80.5 109.8 -36.3Z" stroke="#1b142e" fill="none" stroke-width="49"></path></g><g transform="translate(451 130)"><path d="M81.5 -27C92.6 7.7 79.6 49.7 49.2 73.1C18.8 96.4 -29.1 101.1 -57.8 80.1C-86.4 59.2 -96 12.4 -83.1 -24.6C-70.3 -61.7 -35.2 -89 0 -89C35.2 -89 70.4 -61.7 81.5 -27Z" stroke="#1b142e" fill="none" stroke-width="49"></path></g><g transform="translate(105 81)"><path d="M67.1 -19.9C77.5 10 69.8 47.7 47.4 63.6C25 79.5 -12 73.5 -36.8 54.6C-61.6 35.7 -74.1 3.8 -65.9 -23.1C-57.7 -50.1 -28.9 -72 -0.2 -71.9C28.4 -71.9 56.8 -49.8 67.1 -19.9Z" stroke="#1b142e" fill="none" stroke-width="49"></path></g></g></svg>