<svg id="visual" viewBox="0 0 900 600" width="900" height="600" xmlns="http://www.w3.org/2000/svg" xmlns:xlink="http://www.w3.org/1999/xlink" version="1.1"><rect width="900" height="600" fill="#000000"></rect><g><g transform="translate(717 474)"><path d="M99.3 -35.4C112.6 8.7 96.2 59.4 61 85.3C25.7 111.2 -28.4 112.4 -65 86.5C-101.7 60.6 -120.8 7.6 -107.1 -37.2C-93.3 -82 -46.7 -118.5 -1.8 -117.9C43 -117.3 86 -79.6 99.3 -35.4Z" stroke="#1b142e" fill="none" stroke-width="49"></path></g><g transform="translate(175 361)"><path d="M55.4 -17.9C63 5.4 54.3 34 34.7 48.4C15.2 62.7 -15.2 62.8 -38.3 47.3C-61.4 31.8 -77.3 0.8 -69.7 -22.5C-62.1 -45.9 -31 -61.4 -3.6 -60.3C23.9 -59.1 47.8 -41.2 55.4 -17.9Z" stroke="#1b142e" fill="none" stroke-width="49"></path></g><g transform="translate(697 54)"><path d="M89.3 -28C100.2 4.5 82.8 47.2 50.3 71.3C17.8 95.4 -29.7 100.9 -62.3 78.9C-94.8 56.9 -112.3 7.3 -99.4 -27.9C-86.5 -63.2 -43.3 -84.2 -2 -83.5C39.2 -82.9 78.5 -60.5 89.3 -28Z" stroke="#1b142e" fill="none" stroke-width="49"></path></g></g></svg>